<svg width="306" height="376" viewBox="0 0 306 376" fill="none" xmlns="http://www.w3.org/2000/svg">
<rect width="306" height="376" rx="29" fill="white"/>
<path d="M94.6818 286.904C94.6818 288.043 94.3738 288.995 93.7578 289.76C93.1605 290.507 92.3485 291.067 91.3218 291.44C90.2951 291.813 89.1658 292 87.9338 292H78.2458V272.12H89.3058C90.2391 272.12 91.0418 272.372 91.7138 272.876C92.4045 273.361 92.9271 273.996 93.2818 274.78C93.6551 275.564 93.8418 276.376 93.8418 277.216C93.8418 278.149 93.5991 279.045 93.1138 279.904C92.6285 280.744 91.9191 281.379 90.9858 281.808C92.1245 282.144 93.0205 282.741 93.6738 283.6C94.3458 284.459 94.6818 285.56 94.6818 286.904ZM90.0058 285.98C90.0058 285.551 89.9218 285.177 89.7538 284.86C89.5858 284.524 89.3618 284.263 89.0818 284.076C88.8205 283.871 88.5031 283.768 88.1298 283.768H82.8378V288.108H87.9338C88.3258 288.108 88.6711 288.015 88.9698 287.828C89.2871 287.641 89.5391 287.389 89.7258 287.072C89.9125 286.755 90.0058 286.391 90.0058 285.98ZM82.8378 276.04V280.156H87.3458C87.6818 280.156 87.9898 280.081 88.2698 279.932C88.5685 279.783 88.8111 279.559 88.9978 279.26C89.1845 278.943 89.2778 278.551 89.2778 278.084C89.2778 277.636 89.1938 277.263 89.0258 276.964C88.8765 276.665 88.6711 276.441 88.4098 276.292C88.1485 276.124 87.8498 276.04 87.5138 276.04H82.8378ZM97.0224 292V277.3H101.502V292H97.0224ZM97.0224 275.62V271.56H101.502V275.62H97.0224ZM118.737 292H114.257V283.74C114.257 282.769 114.071 282.069 113.697 281.64C113.343 281.192 112.867 280.968 112.269 280.968C111.859 280.968 111.439 281.08 111.009 281.304C110.58 281.528 110.188 281.836 109.833 282.228C109.497 282.62 109.236 283.068 109.049 283.572V292H104.569V277.3H108.601V279.764C108.975 279.185 109.441 278.691 110.001 278.28C110.561 277.869 111.205 277.561 111.933 277.356C112.661 277.132 113.455 277.02 114.313 277.02C115.265 277.02 116.031 277.197 116.609 277.552C117.207 277.888 117.655 278.336 117.953 278.896C118.271 279.456 118.476 280.063 118.569 280.716C118.681 281.351 118.737 281.976 118.737 282.592V292ZM120.79 287.604C120.79 286.633 121.06 285.784 121.602 285.056C122.143 284.328 122.89 283.759 123.842 283.348C124.794 282.919 125.886 282.704 127.118 282.704C127.715 282.704 128.303 282.76 128.882 282.872C129.46 282.965 129.964 283.105 130.394 283.292V282.648C130.394 281.845 130.151 281.229 129.666 280.8C129.18 280.371 128.443 280.156 127.454 280.156C126.632 280.156 125.858 280.296 125.13 280.576C124.42 280.856 123.664 281.257 122.862 281.78L121.518 278.924C122.488 278.289 123.496 277.813 124.542 277.496C125.606 277.179 126.726 277.02 127.902 277.02C130.104 277.02 131.812 277.552 133.026 278.616C134.258 279.661 134.874 281.183 134.874 283.18V287.016C134.874 287.464 134.939 287.781 135.07 287.968C135.219 288.136 135.471 288.239 135.826 288.276V292C135.452 292.075 135.098 292.131 134.762 292.168C134.444 292.205 134.164 292.224 133.922 292.224C133.082 292.224 132.438 292.056 131.99 291.72C131.56 291.384 131.29 290.927 131.178 290.348L131.094 289.704C130.44 290.544 129.656 291.188 128.742 291.636C127.846 292.065 126.903 292.28 125.914 292.28C124.943 292.28 124.066 292.075 123.282 291.664C122.516 291.253 121.91 290.693 121.462 289.984C121.014 289.275 120.79 288.481 120.79 287.604ZM129.694 288.164C129.899 287.996 130.067 287.809 130.198 287.604C130.328 287.399 130.394 287.203 130.394 287.016V285.7C130.02 285.551 129.6 285.439 129.134 285.364C128.686 285.271 128.266 285.224 127.874 285.224C127.052 285.224 126.371 285.411 125.83 285.784C125.288 286.139 125.018 286.615 125.018 287.212C125.018 287.548 125.111 287.856 125.298 288.136C125.484 288.416 125.736 288.64 126.054 288.808C126.39 288.976 126.782 289.06 127.23 289.06C127.678 289.06 128.126 288.976 128.574 288.808C129.022 288.64 129.395 288.425 129.694 288.164ZM147.444 281.136C146.361 281.136 145.381 281.313 144.504 281.668C143.627 282.004 142.992 282.508 142.6 283.18V292H138.12V277.3H142.236V280.268C142.74 279.279 143.393 278.504 144.196 277.944C144.999 277.384 145.839 277.095 146.716 277.076C146.921 277.076 147.071 277.076 147.164 277.076C147.276 277.076 147.369 277.085 147.444 277.104V281.136ZM149.443 294.212C149.816 294.324 150.162 294.408 150.479 294.464C150.815 294.539 151.114 294.576 151.375 294.576C151.73 294.576 152.028 294.492 152.271 294.324C152.532 294.175 152.756 293.904 152.943 293.512C153.13 293.139 153.298 292.635 153.447 292L147.847 277.3H152.467L155.883 287.408L158.795 277.3H163.023L157.423 294.38C157.162 295.183 156.76 295.892 156.219 296.508C155.678 297.124 155.024 297.6 154.259 297.936C153.494 298.291 152.654 298.468 151.739 298.468C151.347 298.468 150.964 298.431 150.591 298.356C150.218 298.3 149.835 298.197 149.443 298.048V294.212ZM185.323 276.152H179.275V292H174.683V276.152H168.607V272.12H185.323V276.152ZM195.624 281.136C194.541 281.136 193.561 281.313 192.684 281.668C191.806 282.004 191.172 282.508 190.78 283.18V292H186.3V277.3H190.416V280.268C190.92 279.279 191.573 278.504 192.376 277.944C193.178 277.384 194.018 277.095 194.896 277.076C195.101 277.076 195.25 277.076 195.344 277.076C195.456 277.076 195.549 277.085 195.624 277.104V281.136ZM204.429 292.28C203.179 292.28 202.068 292.084 201.097 291.692C200.127 291.281 199.296 290.731 198.605 290.04C197.933 289.349 197.42 288.556 197.065 287.66C196.711 286.745 196.533 285.793 196.533 284.804C196.533 283.385 196.841 282.097 197.457 280.94C198.092 279.764 198.997 278.821 200.173 278.112C201.349 277.384 202.768 277.02 204.429 277.02C206.091 277.02 207.5 277.375 208.657 278.084C209.833 278.793 210.729 279.727 211.345 280.884C211.961 282.023 212.269 283.264 212.269 284.608C212.269 284.869 212.251 285.131 212.213 285.392C212.195 285.635 212.176 285.849 212.157 286.036H201.293C201.349 286.689 201.527 287.24 201.825 287.688C202.143 288.136 202.544 288.481 203.029 288.724C203.515 288.948 204.028 289.06 204.569 289.06C205.241 289.06 205.867 288.901 206.445 288.584C207.043 288.267 207.453 287.837 207.677 287.296L211.485 288.36C211.112 289.125 210.58 289.807 209.889 290.404C209.217 290.983 208.415 291.44 207.481 291.776C206.567 292.112 205.549 292.28 204.429 292.28ZM201.181 283.292H207.565C207.491 282.676 207.313 282.144 207.033 281.696C206.753 281.229 206.38 280.875 205.913 280.632C205.447 280.371 204.933 280.24 204.373 280.24C203.795 280.24 203.272 280.371 202.805 280.632C202.357 280.875 201.993 281.229 201.713 281.696C201.433 282.144 201.256 282.676 201.181 283.292ZM221.328 292.28C220.077 292.28 218.966 292.084 217.996 291.692C217.025 291.281 216.194 290.731 215.504 290.04C214.832 289.349 214.318 288.556 213.964 287.66C213.609 286.745 213.432 285.793 213.432 284.804C213.432 283.385 213.74 282.097 214.356 280.94C214.99 279.764 215.896 278.821 217.072 278.112C218.248 277.384 219.666 277.02 221.328 277.02C222.989 277.02 224.398 277.375 225.556 278.084C226.732 278.793 227.628 279.727 228.244 280.884C228.86 282.023 229.168 283.264 229.168 284.608C229.168 284.869 229.149 285.131 229.112 285.392C229.093 285.635 229.074 285.849 229.056 286.036H218.192C218.248 286.689 218.425 287.24 218.724 287.688C219.041 288.136 219.442 288.481 219.928 288.724C220.413 288.948 220.926 289.06 221.468 289.06C222.14 289.06 222.765 288.901 223.344 288.584C223.941 288.267 224.352 287.837 224.576 287.296L228.384 288.36C228.01 289.125 227.478 289.807 226.788 290.404C226.116 290.983 225.313 291.44 224.38 291.776C223.465 292.112 222.448 292.28 221.328 292.28ZM218.08 283.292H224.464C224.389 282.676 224.212 282.144 223.932 281.696C223.652 281.229 223.278 280.875 222.812 280.632C222.345 280.371 221.832 280.24 221.272 280.24C220.693 280.24 220.17 280.371 219.704 280.632C219.256 280.875 218.892 281.229 218.612 281.696C218.332 282.144 218.154 282.676 218.08 283.292Z" fill="#5156CB"/>
<circle cx="151" cy="94" r="19" fill="#5156CB"/>
<circle cx="108" cy="146" r="19" fill="#5156CB"/>
<circle cx="72" cy="197" r="19" fill="#5156CB"/>
<circle cx="233" cy="197" r="19" fill="#5156CB"/>
<circle cx="193" cy="146" r="19" fill="#5156CB"/>
<path d="M139 108L120 130.5" stroke="#5156CB" stroke-width="4"/>
<path d="M183.071 130.439L162.999 106" stroke="#5156CB" stroke-width="4"/>
<path d="M224.438 184.439L204.366 160" stroke="#5156CB" stroke-width="4"/>
<path d="M98 158L79 180.5" stroke="#5156CB" stroke-width="4"/>
</svg>
