<svg width="200" height="280" viewBox="0 0 200 280" fill="none" xmlns="http://www.w3.org/2000/svg">
<rect width="200" height="280" fill="white"/>
<path d="M53.1943 221.724C53.1943 222.456 52.9963 223.068 52.6003 223.56C52.2163 224.04 51.6943 224.4 51.0343 224.64C50.3743 224.88 49.6483 225 48.8563 225H42.6283V212.22H49.7383C50.3383 212.22 50.8543 212.382 51.2863 212.706C51.7303 213.018 52.0663 213.426 52.2943 213.93C52.5343 214.434 52.6543 214.956 52.6543 215.496C52.6543 216.096 52.4983 216.672 52.1863 217.224C51.8743 217.764 51.4183 218.172 50.8183 218.448C51.5503 218.664 52.1263 219.048 52.5463 219.6C52.9783 220.152 53.1943 220.86 53.1943 221.724ZM50.1883 221.13C50.1883 220.854 50.1343 220.614 50.0263 220.41C49.9183 220.194 49.7743 220.026 49.5943 219.906C49.4263 219.774 49.2223 219.708 48.9823 219.708H45.5803V222.498H48.8563C49.1083 222.498 49.3303 222.438 49.5223 222.318C49.7263 222.198 49.8883 222.036 50.0083 221.832C50.1283 221.628 50.1883 221.394 50.1883 221.13ZM45.5803 214.74V217.386H48.4783C48.6943 217.386 48.8923 217.338 49.0723 217.242C49.2643 217.146 49.4203 217.002 49.5403 216.81C49.6603 216.606 49.7203 216.354 49.7203 216.054C49.7203 215.766 49.6663 215.526 49.5583 215.334C49.4623 215.142 49.3303 214.998 49.1623 214.902C48.9943 214.794 48.8023 214.74 48.5863 214.74H45.5803ZM54.105 222.174C54.105 221.55 54.279 221.004 54.627 220.536C54.975 220.068 55.455 219.702 56.067 219.438C56.679 219.162 57.381 219.024 58.173 219.024C58.557 219.024 58.935 219.06 59.307 219.132C59.679 219.192 60.003 219.282 60.279 219.402V218.988C60.279 218.472 60.123 218.076 59.811 217.8C59.499 217.524 59.025 217.386 58.389 217.386C57.861 217.386 57.363 217.476 56.895 217.656C56.439 217.836 55.953 218.094 55.437 218.43L54.573 216.594C55.197 216.186 55.845 215.88 56.517 215.676C57.201 215.472 57.921 215.37 58.677 215.37C60.093 215.37 61.191 215.712 61.971 216.396C62.763 217.068 63.159 218.046 63.159 219.33V221.796C63.159 222.084 63.201 222.288 63.285 222.408C63.381 222.516 63.543 222.582 63.771 222.606V225C63.531 225.048 63.303 225.084 63.087 225.108C62.883 225.132 62.703 225.144 62.547 225.144C62.007 225.144 61.593 225.036 61.305 224.82C61.029 224.604 60.855 224.31 60.783 223.938L60.729 223.524C60.309 224.064 59.805 224.478 59.217 224.766C58.641 225.042 58.035 225.18 57.399 225.18C56.775 225.18 56.211 225.048 55.707 224.784C55.215 224.52 54.825 224.16 54.537 223.704C54.249 223.248 54.105 222.738 54.105 222.174ZM59.829 222.534C59.961 222.426 60.069 222.306 60.153 222.174C60.237 222.042 60.279 221.916 60.279 221.796V220.95C60.039 220.854 59.769 220.782 59.469 220.734C59.181 220.674 58.911 220.644 58.659 220.644C58.131 220.644 57.693 220.764 57.345 221.004C56.997 221.232 56.823 221.538 56.823 221.922C56.823 222.138 56.883 222.336 57.003 222.516C57.123 222.696 57.285 222.84 57.489 222.948C57.705 223.056 57.957 223.11 58.245 223.11C58.533 223.11 58.821 223.056 59.109 222.948C59.397 222.84 59.637 222.702 59.829 222.534ZM69.7639 225.18C68.9599 225.18 68.2459 225.048 67.6219 224.784C66.9979 224.52 66.4639 224.16 66.0199 223.704C65.5879 223.248 65.2579 222.726 65.0299 222.138C64.8019 221.55 64.6879 220.926 64.6879 220.266C64.6879 219.402 64.8859 218.598 65.2819 217.854C65.6899 217.11 66.2719 216.51 67.0279 216.054C67.7839 215.598 68.6959 215.37 69.7639 215.37C70.8439 215.37 71.7559 215.604 72.4999 216.072C73.2559 216.528 73.8199 217.128 74.1919 217.872L71.3839 218.718C71.2039 218.43 70.9699 218.208 70.6819 218.052C70.4059 217.896 70.0939 217.818 69.7459 217.818C69.3499 217.818 68.9899 217.92 68.6659 218.124C68.3539 218.328 68.1019 218.61 67.9099 218.97C67.7299 219.33 67.6399 219.762 67.6399 220.266C67.6399 220.758 67.7359 221.19 67.9279 221.562C68.1199 221.934 68.3719 222.228 68.6839 222.444C68.9959 222.648 69.3499 222.75 69.7459 222.75C69.9859 222.75 70.2079 222.714 70.4119 222.642C70.6279 222.558 70.8199 222.444 70.9879 222.3C71.1679 222.156 71.3059 221.994 71.4019 221.814L74.2099 222.678C73.9819 223.158 73.6519 223.59 73.2199 223.974C72.7999 224.346 72.3019 224.64 71.7259 224.856C71.1499 225.072 70.4959 225.18 69.7639 225.18ZM81.8655 225L79.3995 221.22L78.3915 222.246V225H75.5115V211.86H78.3915V219.456L81.5955 215.55H84.6375L81.2355 219.618L84.9255 225H81.8655ZM91.8795 224.496C91.6155 224.604 91.3215 224.712 90.9975 224.82C90.6855 224.928 90.3555 225.012 90.0075 225.072C89.6595 225.144 89.3175 225.18 88.9815 225.18C88.5015 225.18 88.0575 225.102 87.6495 224.946C87.2535 224.778 86.9355 224.508 86.6955 224.136C86.4675 223.764 86.3535 223.272 86.3535 222.66V217.728H85.1475V215.55H86.3535V212.544H89.2335V215.55H91.1595V217.728H89.2335V221.67C89.2335 221.982 89.3115 222.21 89.4675 222.354C89.6235 222.486 89.8215 222.552 90.0615 222.552C90.2655 222.552 90.4815 222.516 90.7095 222.444C90.9495 222.372 91.1535 222.294 91.3215 222.21L91.8795 224.496ZM98.9957 218.016C98.2997 218.016 97.6697 218.13 97.1057 218.358C96.5417 218.574 96.1337 218.898 95.8817 219.33V225H93.0017V215.55H95.6477V217.458C95.9717 216.822 96.3917 216.324 96.9077 215.964C97.4237 215.604 97.9637 215.418 98.5277 215.406C98.6597 215.406 98.7557 215.406 98.8157 215.406C98.8877 215.406 98.9477 215.412 98.9957 215.424V218.016ZM99.5444 222.174C99.5444 221.55 99.7184 221.004 100.066 220.536C100.414 220.068 100.894 219.702 101.506 219.438C102.118 219.162 102.82 219.024 103.612 219.024C103.996 219.024 104.374 219.06 104.746 219.132C105.118 219.192 105.442 219.282 105.718 219.402V218.988C105.718 218.472 105.562 218.076 105.25 217.8C104.938 217.524 104.464 217.386 103.828 217.386C103.3 217.386 102.802 217.476 102.334 217.656C101.878 217.836 101.392 218.094 100.876 218.43L100.012 216.594C100.636 216.186 101.284 215.88 101.956 215.676C102.64 215.472 103.36 215.37 104.116 215.37C105.532 215.37 106.63 215.712 107.41 216.396C108.202 217.068 108.598 218.046 108.598 219.33V221.796C108.598 222.084 108.64 222.288 108.724 222.408C108.82 222.516 108.982 222.582 109.21 222.606V225C108.97 225.048 108.742 225.084 108.526 225.108C108.322 225.132 108.142 225.144 107.986 225.144C107.446 225.144 107.032 225.036 106.744 224.82C106.468 224.604 106.294 224.31 106.222 223.938L106.168 223.524C105.748 224.064 105.244 224.478 104.656 224.766C104.08 225.042 103.474 225.18 102.838 225.18C102.214 225.18 101.65 225.048 101.146 224.784C100.654 224.52 100.264 224.16 99.9764 223.704C99.6884 223.248 99.5444 222.738 99.5444 222.174ZM105.268 222.534C105.4 222.426 105.508 222.306 105.592 222.174C105.676 222.042 105.718 221.916 105.718 221.796V220.95C105.478 220.854 105.208 220.782 104.908 220.734C104.62 220.674 104.35 220.644 104.098 220.644C103.57 220.644 103.132 220.764 102.784 221.004C102.436 221.232 102.262 221.538 102.262 221.922C102.262 222.138 102.322 222.336 102.442 222.516C102.562 222.696 102.724 222.84 102.928 222.948C103.144 223.056 103.396 223.11 103.684 223.11C103.972 223.11 104.26 223.056 104.548 222.948C104.836 222.84 105.076 222.702 105.268 222.534ZM115.203 225.18C114.399 225.18 113.685 225.048 113.061 224.784C112.437 224.52 111.903 224.16 111.459 223.704C111.027 223.248 110.697 222.726 110.469 222.138C110.241 221.55 110.127 220.926 110.127 220.266C110.127 219.402 110.325 218.598 110.721 217.854C111.129 217.11 111.711 216.51 112.467 216.054C113.223 215.598 114.135 215.37 115.203 215.37C116.283 215.37 117.195 215.604 117.939 216.072C118.695 216.528 119.259 217.128 119.631 217.872L116.823 218.718C116.643 218.43 116.409 218.208 116.121 218.052C115.845 217.896 115.533 217.818 115.185 217.818C114.789 217.818 114.429 217.92 114.105 218.124C113.793 218.328 113.541 218.61 113.349 218.97C113.169 219.33 113.079 219.762 113.079 220.266C113.079 220.758 113.175 221.19 113.367 221.562C113.559 221.934 113.811 222.228 114.123 222.444C114.435 222.648 114.789 222.75 115.185 222.75C115.425 222.75 115.647 222.714 115.851 222.642C116.067 222.558 116.259 222.444 116.427 222.3C116.607 222.156 116.745 221.994 116.841 221.814L119.649 222.678C119.421 223.158 119.091 223.59 118.659 223.974C118.239 224.346 117.741 224.64 117.165 224.856C116.589 225.072 115.935 225.18 115.203 225.18ZM127.305 225L124.839 221.22L123.831 222.246V225H120.951V211.86H123.831V219.456L127.035 215.55H130.077L126.675 219.618L130.365 225H127.305ZM131.199 225V215.55H134.079V225H131.199ZM131.199 214.47V211.86H134.079V214.47H131.199ZM145.159 225H142.279V219.69C142.279 219.066 142.159 218.616 141.919 218.34C141.691 218.052 141.385 217.908 141.001 217.908C140.737 217.908 140.467 217.98 140.191 218.124C139.915 218.268 139.663 218.466 139.435 218.718C139.219 218.97 139.051 219.258 138.931 219.582V225H136.051V215.55H138.643V217.134C138.883 216.762 139.183 216.444 139.543 216.18C139.903 215.916 140.317 215.718 140.785 215.586C141.253 215.442 141.763 215.37 142.315 215.37C142.927 215.37 143.419 215.484 143.791 215.712C144.175 215.928 144.463 216.216 144.655 216.576C144.859 216.936 144.991 217.326 145.051 217.746C145.123 218.154 145.159 218.556 145.159 218.952V225ZM150.744 225.036C150.12 225.036 149.55 224.916 149.034 224.676C148.518 224.424 148.074 224.082 147.702 223.65C147.342 223.206 147.06 222.696 146.856 222.12C146.652 221.544 146.55 220.926 146.55 220.266C146.55 219.57 146.658 218.928 146.874 218.34C147.09 217.752 147.39 217.236 147.774 216.792C148.17 216.336 148.632 215.988 149.16 215.748C149.7 215.496 150.294 215.37 150.942 215.37C151.65 215.37 152.274 215.526 152.814 215.838C153.354 216.138 153.786 216.558 154.11 217.098V215.55H156.612V224.352C156.612 225.312 156.378 226.14 155.91 226.836C155.454 227.532 154.812 228.066 153.984 228.438C153.168 228.822 152.22 229.014 151.14 229.014C150.132 229.014 149.262 228.846 148.53 228.51C147.81 228.186 147.18 227.724 146.64 227.124L148.188 225.558C148.536 225.954 148.968 226.266 149.484 226.494C150 226.734 150.552 226.854 151.14 226.854C151.608 226.854 152.04 226.77 152.436 226.602C152.832 226.434 153.144 226.164 153.372 225.792C153.612 225.42 153.732 224.94 153.732 224.352V223.434C153.444 223.95 153.024 224.346 152.472 224.622C151.932 224.898 151.356 225.036 150.744 225.036ZM151.734 222.75C151.962 222.75 152.172 222.72 152.364 222.66C152.568 222.588 152.754 222.498 152.922 222.39C153.09 222.27 153.246 222.132 153.39 221.976C153.534 221.808 153.648 221.628 153.732 221.436V219.456C153.612 219.12 153.438 218.832 153.21 218.592C152.982 218.34 152.73 218.148 152.454 218.016C152.178 217.884 151.89 217.818 151.59 217.818C151.29 217.818 151.008 217.884 150.744 218.016C150.48 218.148 150.252 218.34 150.06 218.592C149.88 218.832 149.736 219.102 149.628 219.402C149.532 219.702 149.484 220.014 149.484 220.338C149.484 220.686 149.538 221.004 149.646 221.292C149.766 221.58 149.928 221.838 150.132 222.066C150.336 222.282 150.576 222.45 150.852 222.57C151.128 222.69 151.422 222.75 151.734 222.75ZM55.8486 239.754C55.8486 238.53 56.1126 237.3 56.6406 236.064C57.1686 234.828 57.8166 233.556 58.5846 232.248L60.7806 233.148C60.6126 233.412 60.4026 233.784 60.1506 234.264C59.9106 234.744 59.6646 235.296 59.4126 235.92C59.1606 236.532 58.9506 237.174 58.7826 237.846C58.6146 238.518 58.5306 239.172 58.5306 239.808C58.5306 240.78 58.7346 241.782 59.1426 242.814C59.5626 243.834 60.0846 244.908 60.7086 246.036L58.6206 247.062C58.1166 246.318 57.6546 245.544 57.2346 244.74C56.8146 243.924 56.4786 243.096 56.2266 242.256C55.9746 241.416 55.8486 240.582 55.8486 239.754ZM65.3381 238.692V246H62.3861V233.22H64.7261L70.6481 240.744V233.22H73.6001V246H71.1881L65.3381 238.692ZM75.7923 242.346V239.754H81.3363V242.346H75.7923ZM86.8626 246.18C86.2626 246.18 85.7106 246.054 85.2066 245.802C84.7146 245.55 84.2826 245.202 83.9106 244.758C83.5506 244.314 83.2686 243.792 83.0646 243.192C82.8726 242.592 82.7766 241.944 82.7766 241.248C82.7766 240.552 82.8846 239.91 83.1006 239.322C83.3166 238.734 83.6226 238.218 84.0186 237.774C84.4266 237.33 84.8946 236.988 85.4226 236.748C85.9626 236.496 86.5446 236.37 87.1686 236.37C87.8766 236.37 88.4946 236.526 89.0226 236.838C89.5506 237.15 89.9886 237.57 90.3366 238.098V236.55H92.8386V249.852H89.9586V244.47C89.3226 245.61 88.2906 246.18 86.8626 246.18ZM87.9606 243.75C88.2366 243.75 88.4946 243.696 88.7346 243.588C88.9866 243.48 89.2146 243.33 89.4186 243.138C89.6226 242.946 89.8026 242.724 89.9586 242.472V240.474C89.8866 240.246 89.7786 240.03 89.6346 239.826C89.4906 239.622 89.3226 239.442 89.1306 239.286C88.9386 239.13 88.7346 239.016 88.5186 238.944C88.3026 238.86 88.0866 238.818 87.8706 238.818C87.5466 238.818 87.2526 238.884 86.9886 239.016C86.7366 239.148 86.5146 239.334 86.3226 239.574C86.1306 239.802 85.9806 240.066 85.8726 240.366C85.7646 240.666 85.7106 240.984 85.7106 241.32C85.7106 241.788 85.8066 242.202 85.9986 242.562C86.1906 242.922 86.4546 243.21 86.7906 243.426C87.1266 243.642 87.5166 243.75 87.9606 243.75ZM94.7223 242.598V236.55H97.6023V241.968C97.6023 242.544 97.7163 242.988 97.9443 243.3C98.1723 243.6 98.4963 243.75 98.9163 243.75C99.1803 243.75 99.4323 243.708 99.6723 243.624C99.9123 243.528 100.146 243.378 100.374 243.174C100.602 242.97 100.806 242.706 100.986 242.382V236.55H103.866V242.796C103.866 243.084 103.908 243.288 103.992 243.408C104.088 243.516 104.25 243.582 104.478 243.606V246C104.214 246.048 103.98 246.084 103.776 246.108C103.584 246.132 103.41 246.144 103.254 246.144C102.75 246.144 102.348 246.042 102.048 245.838C101.748 245.622 101.562 245.322 101.49 244.938L101.436 244.362C101.004 244.986 100.464 245.448 99.8163 245.748C99.1803 246.036 98.4663 246.18 97.6743 246.18C96.7143 246.18 95.9823 245.874 95.4783 245.262C94.9743 244.65 94.7223 243.762 94.7223 242.598ZM110.615 246.18C109.811 246.18 109.097 246.054 108.473 245.802C107.849 245.538 107.315 245.184 106.871 244.74C106.439 244.296 106.109 243.786 105.881 243.21C105.653 242.622 105.539 242.01 105.539 241.374C105.539 240.462 105.737 239.634 106.133 238.89C106.541 238.134 107.123 237.528 107.879 237.072C108.635 236.604 109.547 236.37 110.615 236.37C111.683 236.37 112.589 236.598 113.333 237.054C114.089 237.51 114.665 238.11 115.061 238.854C115.457 239.586 115.655 240.384 115.655 241.248C115.655 241.416 115.643 241.584 115.619 241.752C115.607 241.908 115.595 242.046 115.583 242.166H108.599C108.635 242.586 108.749 242.94 108.941 243.228C109.145 243.516 109.403 243.738 109.715 243.894C110.027 244.038 110.357 244.11 110.705 244.11C111.137 244.11 111.539 244.008 111.911 243.804C112.295 243.6 112.559 243.324 112.703 242.976L115.151 243.66C114.911 244.152 114.569 244.59 114.125 244.974C113.693 245.346 113.177 245.64 112.577 245.856C111.989 246.072 111.335 246.18 110.615 246.18ZM108.527 240.402H112.631C112.583 240.006 112.469 239.664 112.289 239.376C112.109 239.076 111.869 238.848 111.569 238.692C111.269 238.524 110.939 238.44 110.579 238.44C110.207 238.44 109.871 238.524 109.571 238.692C109.283 238.848 109.049 239.076 108.869 239.376C108.689 239.664 108.575 240.006 108.527 240.402ZM121.479 246.18C120.675 246.18 119.961 246.054 119.337 245.802C118.713 245.538 118.179 245.184 117.735 244.74C117.303 244.296 116.973 243.786 116.745 243.21C116.517 242.622 116.403 242.01 116.403 241.374C116.403 240.462 116.601 239.634 116.997 238.89C117.405 238.134 117.987 237.528 118.743 237.072C119.499 236.604 120.411 236.37 121.479 236.37C122.547 236.37 123.453 236.598 124.197 237.054C124.953 237.51 125.529 238.11 125.925 238.854C126.321 239.586 126.519 240.384 126.519 241.248C126.519 241.416 126.507 241.584 126.483 241.752C126.471 241.908 126.459 242.046 126.447 242.166H119.463C119.499 242.586 119.613 242.94 119.805 243.228C120.009 243.516 120.267 243.738 120.579 243.894C120.891 244.038 121.221 244.11 121.569 244.11C122.001 244.11 122.403 244.008 122.775 243.804C123.159 243.6 123.423 243.324 123.567 242.976L126.015 243.66C125.775 244.152 125.433 244.59 124.989 244.974C124.557 245.346 124.041 245.64 123.441 245.856C122.853 246.072 122.199 246.18 121.479 246.18ZM119.391 240.402H123.495C123.447 240.006 123.333 239.664 123.153 239.376C122.973 239.076 122.733 238.848 122.433 238.692C122.133 238.524 121.803 238.44 121.443 238.44C121.071 238.44 120.735 238.524 120.435 238.692C120.147 238.848 119.913 239.076 119.733 239.376C119.553 239.664 119.439 240.006 119.391 240.402ZM136.932 246H134.052V240.69C134.052 240.066 133.932 239.616 133.692 239.34C133.464 239.052 133.158 238.908 132.774 238.908C132.51 238.908 132.24 238.98 131.964 239.124C131.688 239.268 131.436 239.466 131.208 239.718C130.992 239.97 130.824 240.258 130.704 240.582V246H127.824V236.55H130.416V238.134C130.656 237.762 130.956 237.444 131.316 237.18C131.676 236.916 132.09 236.718 132.558 236.586C133.026 236.442 133.536 236.37 134.088 236.37C134.7 236.37 135.192 236.484 135.564 236.712C135.948 236.928 136.236 237.216 136.428 237.576C136.632 237.936 136.764 238.326 136.824 238.746C136.896 239.154 136.932 239.556 136.932 239.952V246ZM143.147 239.754C143.147 240.582 143.021 241.416 142.769 242.256C142.517 243.096 142.181 243.924 141.761 244.74C141.341 245.544 140.879 246.318 140.375 247.062L138.287 246.036C138.911 244.908 139.427 243.834 139.835 242.814C140.255 241.782 140.465 240.78 140.465 239.808C140.465 239.172 140.381 238.518 140.213 237.846C140.045 237.174 139.835 236.532 139.583 235.92C139.331 235.296 139.079 234.744 138.827 234.264C138.587 233.784 138.383 233.412 138.215 233.148L140.411 232.248C141.179 233.556 141.827 234.828 142.355 236.064C142.883 237.3 143.147 238.53 143.147 239.754Z" fill="#5156CB"/>
<rect x="35" y="47" width="130" height="130" rx="3" fill="#5156CB"/>
<rect x="39" y="50" width="28" height="28" rx="2" fill="#004A62"/>
<rect x="70" y="50" width="28" height="28" rx="2" fill="#00C2DD"/>
<rect x="101" y="50" width="28" height="28" rx="2" fill="#004A62"/>
<rect x="132" y="50" width="28" height="28" rx="2" fill="#00C2DD"/>
<rect x="39" y="82" width="28" height="28" rx="2" fill="#00C2DD"/>
<rect x="70" y="82" width="28" height="28" rx="2" fill="#004A62"/>
<rect x="101" y="82" width="28" height="28" rx="2" fill="#00C2DD"/>
<rect x="132" y="82" width="28" height="28" rx="2" fill="#004A62"/>
<rect x="39" y="114" width="28" height="28" rx="2" fill="#004A62"/>
<rect x="70" y="114" width="28" height="28" rx="2" fill="#00C2DD"/>
<rect x="101" y="114" width="28" height="28" rx="2" fill="#004A62"/>
<rect x="132" y="114" width="28" height="28" rx="2" fill="#00C2DD"/>
<rect x="39" y="146" width="28" height="28" rx="2" fill="#00C2DD"/>
<rect x="70" y="146" width="28" height="28" rx="2" fill="#004A62"/>
<rect x="101" y="146" width="28" height="28" rx="2" fill="#00C2DD"/>
<rect x="132" y="146" width="28" height="28" rx="2" fill="#004A62"/>
</svg>
