<svg width="200" height="280" viewBox="0 0 200 280" fill="none" xmlns="http://www.w3.org/2000/svg">
<rect width="200" height="280" fill="white"/>
<rect x="35" y="28" width="30" height="154" rx="2" fill="#5156CB"/>
<rect x="85" y="88" width="30" height="94" rx="2" fill="#5156CB"/>
<rect x="135" y="28" width="30" height="154" rx="2" fill="#5156CB"/>
<path d="M74.3432 215.964C74.3072 215.904 74.1812 215.814 73.9652 215.694C73.7492 215.562 73.4792 215.424 73.1552 215.28C72.8312 215.136 72.4772 215.01 72.0932 214.902C71.7092 214.794 71.3252 214.74 70.9412 214.74C70.4372 214.74 70.0472 214.83 69.7712 215.01C69.4952 215.178 69.3572 215.442 69.3572 215.802C69.3572 216.09 69.4592 216.318 69.6632 216.486C69.8792 216.654 70.1852 216.804 70.5812 216.936C70.9772 217.056 71.4632 217.2 72.0392 217.368C72.8552 217.584 73.5632 217.848 74.1632 218.16C74.7632 218.46 75.2192 218.85 75.5312 219.33C75.8552 219.81 76.0172 220.446 76.0172 221.238C76.0172 221.958 75.8852 222.57 75.6212 223.074C75.3572 223.566 74.9972 223.968 74.5412 224.28C74.0972 224.58 73.5872 224.802 73.0112 224.946C72.4352 225.078 71.8412 225.144 71.2292 225.144C70.6052 225.144 69.9632 225.084 69.3032 224.964C68.6552 224.832 68.0312 224.652 67.4312 224.424C66.8312 224.184 66.2792 223.896 65.7752 223.56L67.0712 220.986C67.1192 221.046 67.2752 221.16 67.5392 221.328C67.8032 221.484 68.1272 221.652 68.5112 221.832C68.9072 222 69.3452 222.15 69.8252 222.282C70.3052 222.414 70.7912 222.48 71.2832 222.48C71.8112 222.48 72.2012 222.396 72.4532 222.228C72.7172 222.06 72.8492 221.826 72.8492 221.526C72.8492 221.202 72.7112 220.95 72.4352 220.77C72.1712 220.59 71.8052 220.428 71.3372 220.284C70.8812 220.14 70.3532 219.978 69.7532 219.798C68.9732 219.558 68.3252 219.288 67.8092 218.988C67.3052 218.688 66.9272 218.322 66.6752 217.89C66.4352 217.458 66.3152 216.918 66.3152 216.27C66.3152 215.37 66.5252 214.614 66.9452 214.002C67.3772 213.378 67.9532 212.91 68.6732 212.598C69.3932 212.274 70.1792 212.112 71.0312 212.112C71.6312 212.112 72.2072 212.184 72.7592 212.328C73.3232 212.472 73.8452 212.652 74.3252 212.868C74.8172 213.084 75.2552 213.3 75.6392 213.516L74.3432 215.964ZM82.0154 225.18C81.2114 225.18 80.4914 225.048 79.8554 224.784C79.2314 224.52 78.7034 224.16 78.2714 223.704C77.8394 223.248 77.5094 222.726 77.2814 222.138C77.0654 221.55 76.9574 220.932 76.9574 220.284C76.9574 219.624 77.0654 219 77.2814 218.412C77.5094 217.824 77.8394 217.302 78.2714 216.846C78.7034 216.39 79.2314 216.03 79.8554 215.766C80.4914 215.502 81.2114 215.37 82.0154 215.37C82.8194 215.37 83.5334 215.502 84.1574 215.766C84.7814 216.03 85.3094 216.39 85.7414 216.846C86.1734 217.302 86.5034 217.824 86.7314 218.412C86.9594 219 87.0734 219.624 87.0734 220.284C87.0734 220.932 86.9594 221.55 86.7314 222.138C86.5034 222.726 86.1734 223.248 85.7414 223.704C85.3094 224.16 84.7814 224.52 84.1574 224.784C83.5334 225.048 82.8194 225.18 82.0154 225.18ZM79.9094 220.284C79.9094 220.776 79.9994 221.208 80.1794 221.58C80.3714 221.952 80.6234 222.24 80.9354 222.444C81.2474 222.648 81.6074 222.75 82.0154 222.75C82.4114 222.75 82.7654 222.648 83.0774 222.444C83.4014 222.228 83.6534 221.934 83.8334 221.562C84.0134 221.19 84.1034 220.764 84.1034 220.284C84.1034 219.792 84.0134 219.36 83.8334 218.988C83.6534 218.616 83.4014 218.328 83.0774 218.124C82.7654 217.92 82.4114 217.818 82.0154 217.818C81.6074 217.818 81.2474 217.92 80.9354 218.124C80.6234 218.328 80.3714 218.616 80.1794 218.988C79.9994 219.36 79.9094 219.792 79.9094 220.284ZM94.4957 218.016C93.7997 218.016 93.1697 218.13 92.6057 218.358C92.0417 218.574 91.6337 218.898 91.3817 219.33V225H88.5017V215.55H91.1477V217.458C91.4717 216.822 91.8917 216.324 92.4077 215.964C92.9237 215.604 93.4637 215.418 94.0277 215.406C94.1597 215.406 94.2557 215.406 94.3157 215.406C94.3877 215.406 94.4477 215.412 94.4957 215.424V218.016ZM101.829 224.496C101.565 224.604 101.271 224.712 100.947 224.82C100.635 224.928 100.305 225.012 99.9568 225.072C99.6088 225.144 99.2668 225.18 98.9308 225.18C98.4508 225.18 98.0068 225.102 97.5988 224.946C97.2028 224.778 96.8848 224.508 96.6448 224.136C96.4168 223.764 96.3028 223.272 96.3028 222.66V217.728H95.0968V215.55H96.3028V212.544H99.1828V215.55H101.109V217.728H99.1828V221.67C99.1828 221.982 99.2608 222.21 99.4168 222.354C99.5728 222.486 99.7708 222.552 100.011 222.552C100.215 222.552 100.431 222.516 100.659 222.444C100.899 222.372 101.103 222.294 101.271 222.21L101.829 224.496ZM102.951 225V215.55H105.831V225H102.951ZM102.951 214.47V211.86H105.831V214.47H102.951ZM116.911 225H114.031V219.69C114.031 219.066 113.911 218.616 113.671 218.34C113.443 218.052 113.137 217.908 112.753 217.908C112.489 217.908 112.219 217.98 111.943 218.124C111.667 218.268 111.415 218.466 111.187 218.718C110.971 218.97 110.803 219.258 110.683 219.582V225H107.803V215.55H110.395V217.134C110.635 216.762 110.935 216.444 111.295 216.18C111.655 215.916 112.069 215.718 112.537 215.586C113.005 215.442 113.515 215.37 114.067 215.37C114.679 215.37 115.171 215.484 115.543 215.712C115.927 215.928 116.215 216.216 116.407 216.576C116.611 216.936 116.743 217.326 116.803 217.746C116.875 218.154 116.911 218.556 116.911 218.952V225ZM122.496 225.036C121.872 225.036 121.302 224.916 120.786 224.676C120.27 224.424 119.826 224.082 119.454 223.65C119.094 223.206 118.812 222.696 118.608 222.12C118.404 221.544 118.302 220.926 118.302 220.266C118.302 219.57 118.41 218.928 118.626 218.34C118.842 217.752 119.142 217.236 119.526 216.792C119.922 216.336 120.384 215.988 120.912 215.748C121.452 215.496 122.046 215.37 122.694 215.37C123.402 215.37 124.026 215.526 124.566 215.838C125.106 216.138 125.538 216.558 125.862 217.098V215.55H128.364V224.352C128.364 225.312 128.13 226.14 127.662 226.836C127.206 227.532 126.564 228.066 125.736 228.438C124.92 228.822 123.972 229.014 122.892 229.014C121.884 229.014 121.014 228.846 120.282 228.51C119.562 228.186 118.932 227.724 118.392 227.124L119.94 225.558C120.288 225.954 120.72 226.266 121.236 226.494C121.752 226.734 122.304 226.854 122.892 226.854C123.36 226.854 123.792 226.77 124.188 226.602C124.584 226.434 124.896 226.164 125.124 225.792C125.364 225.42 125.484 224.94 125.484 224.352V223.434C125.196 223.95 124.776 224.346 124.224 224.622C123.684 224.898 123.108 225.036 122.496 225.036ZM123.486 222.75C123.714 222.75 123.924 222.72 124.116 222.66C124.32 222.588 124.506 222.498 124.674 222.39C124.842 222.27 124.998 222.132 125.142 221.976C125.286 221.808 125.4 221.628 125.484 221.436V219.456C125.364 219.12 125.19 218.832 124.962 218.592C124.734 218.34 124.482 218.148 124.206 218.016C123.93 217.884 123.642 217.818 123.342 217.818C123.042 217.818 122.76 217.884 122.496 218.016C122.232 218.148 122.004 218.34 121.812 218.592C121.632 218.832 121.488 219.102 121.38 219.402C121.284 219.702 121.236 220.014 121.236 220.338C121.236 220.686 121.29 221.004 121.398 221.292C121.518 221.58 121.68 221.838 121.884 222.066C122.088 222.282 122.328 222.45 122.604 222.57C122.88 222.69 123.174 222.75 123.486 222.75ZM42.8584 239.754C42.8584 238.53 43.1224 237.3 43.6504 236.064C44.1784 234.828 44.8264 233.556 45.5944 232.248L47.7904 233.148C47.6224 233.412 47.4124 233.784 47.1604 234.264C46.9204 234.744 46.6744 235.296 46.4224 235.92C46.1704 236.532 45.9604 237.174 45.7924 237.846C45.6244 238.518 45.5404 239.172 45.5404 239.808C45.5404 240.78 45.7444 241.782 46.1524 242.814C46.5724 243.834 47.0944 244.908 47.7184 246.036L45.6304 247.062C45.1264 246.318 44.6644 245.544 44.2444 244.74C43.8244 243.924 43.4884 243.096 43.2364 242.256C42.9844 241.416 42.8584 240.582 42.8584 239.754ZM53.2932 246.18C52.4892 246.18 51.7752 246.048 51.1512 245.784C50.5272 245.52 49.9932 245.16 49.5492 244.704C49.1172 244.248 48.7872 243.726 48.5592 243.138C48.3312 242.55 48.2172 241.926 48.2172 241.266C48.2172 240.402 48.4152 239.598 48.8112 238.854C49.2192 238.11 49.8012 237.51 50.5572 237.054C51.3132 236.598 52.2252 236.37 53.2932 236.37C54.3732 236.37 55.2852 236.604 56.0292 237.072C56.7852 237.528 57.3492 238.128 57.7212 238.872L54.9132 239.718C54.7332 239.43 54.4992 239.208 54.2112 239.052C53.9352 238.896 53.6232 238.818 53.2752 238.818C52.8792 238.818 52.5192 238.92 52.1952 239.124C51.8832 239.328 51.6312 239.61 51.4392 239.97C51.2592 240.33 51.1692 240.762 51.1692 241.266C51.1692 241.758 51.2652 242.19 51.4572 242.562C51.6492 242.934 51.9012 243.228 52.2132 243.444C52.5252 243.648 52.8792 243.75 53.2752 243.75C53.5152 243.75 53.7372 243.714 53.9412 243.642C54.1572 243.558 54.3492 243.444 54.5172 243.3C54.6972 243.156 54.8352 242.994 54.9312 242.814L57.7392 243.678C57.5112 244.158 57.1812 244.59 56.7492 244.974C56.3292 245.346 55.8312 245.64 55.2552 245.856C54.6792 246.072 54.0252 246.18 53.2932 246.18ZM63.4529 246.18C62.6489 246.18 61.9289 246.048 61.2929 245.784C60.6689 245.52 60.1409 245.16 59.7089 244.704C59.2769 244.248 58.9469 243.726 58.7189 243.138C58.5029 242.55 58.3949 241.932 58.3949 241.284C58.3949 240.624 58.5029 240 58.7189 239.412C58.9469 238.824 59.2769 238.302 59.7089 237.846C60.1409 237.39 60.6689 237.03 61.2929 236.766C61.9289 236.502 62.6489 236.37 63.4529 236.37C64.2569 236.37 64.9709 236.502 65.5949 236.766C66.2189 237.03 66.7469 237.39 67.1789 237.846C67.6109 238.302 67.9409 238.824 68.1689 239.412C68.3969 240 68.5109 240.624 68.5109 241.284C68.5109 241.932 68.3969 242.55 68.1689 243.138C67.9409 243.726 67.6109 244.248 67.1789 244.704C66.7469 245.16 66.2189 245.52 65.5949 245.784C64.9709 246.048 64.2569 246.18 63.4529 246.18ZM61.3469 241.284C61.3469 241.776 61.4369 242.208 61.6169 242.58C61.8089 242.952 62.0609 243.24 62.3729 243.444C62.6849 243.648 63.0449 243.75 63.4529 243.75C63.8489 243.75 64.2029 243.648 64.5149 243.444C64.8389 243.228 65.0909 242.934 65.2709 242.562C65.4509 242.19 65.5409 241.764 65.5409 241.284C65.5409 240.792 65.4509 240.36 65.2709 239.988C65.0909 239.616 64.8389 239.328 64.5149 239.124C64.2029 238.92 63.8489 238.818 63.4529 238.818C63.0449 238.818 62.6849 238.92 62.3729 239.124C62.0609 239.328 61.8089 239.616 61.6169 239.988C61.4369 240.36 61.3469 240.792 61.3469 241.284ZM84.8792 246H81.9992V240.69C81.9992 240.078 81.8852 239.628 81.6572 239.34C81.4292 239.052 81.1352 238.908 80.7752 238.908C80.3912 238.908 80.0132 239.064 79.6412 239.376C79.2692 239.688 79.0052 240.09 78.8492 240.582V246H75.9692V240.69C75.9692 240.066 75.8552 239.616 75.6272 239.34C75.3992 239.052 75.1052 238.908 74.7452 238.908C74.3732 238.908 74.0012 239.064 73.6292 239.376C73.2572 239.688 72.9872 240.09 72.8192 240.582V246H69.9392V236.55H72.5312V238.134C72.8792 237.57 73.3472 237.138 73.9352 236.838C74.5352 236.526 75.2312 236.37 76.0232 236.37C76.8032 236.37 77.4032 236.556 77.8232 236.928C78.2432 237.288 78.5132 237.714 78.6332 238.206C78.9932 237.618 79.4672 237.168 80.0552 236.856C80.6552 236.532 81.3272 236.37 82.0712 236.37C82.6712 236.37 83.1572 236.484 83.5292 236.712C83.9012 236.928 84.1832 237.216 84.3752 237.576C84.5672 237.936 84.6992 238.326 84.7712 238.746C84.8432 239.154 84.8792 239.556 84.8792 239.952V246ZM92.7375 246.18C92.0295 246.18 91.4115 246.03 90.8835 245.73C90.3555 245.418 89.9415 244.998 89.6415 244.47V249.834H86.7615V236.55H89.2635V238.08C89.6115 237.54 90.0495 237.12 90.5775 236.82C91.1055 236.52 91.7235 236.37 92.4315 236.37C93.0675 236.37 93.6495 236.496 94.1775 236.748C94.7175 237 95.1855 237.348 95.5815 237.792C95.9775 238.236 96.2835 238.752 96.4995 239.34C96.7155 239.928 96.8235 240.564 96.8235 241.248C96.8235 242.184 96.6495 243.024 96.3015 243.768C95.9535 244.512 95.4675 245.1 94.8435 245.532C94.2315 245.964 93.5295 246.18 92.7375 246.18ZM91.7655 243.75C92.0775 243.75 92.3595 243.684 92.6115 243.552C92.8755 243.408 93.1035 243.222 93.2955 242.994C93.4875 242.766 93.6315 242.502 93.7275 242.202C93.8355 241.89 93.8895 241.566 93.8895 241.23C93.8895 240.882 93.8295 240.564 93.7095 240.276C93.6015 239.988 93.4455 239.736 93.2415 239.52C93.0375 239.292 92.7975 239.118 92.5215 238.998C92.2455 238.878 91.9455 238.818 91.6215 238.818C91.4295 238.818 91.2315 238.848 91.0275 238.908C90.8355 238.968 90.6495 239.058 90.4695 239.178C90.3015 239.286 90.1455 239.418 90.0015 239.574C89.8575 239.73 89.7375 239.91 89.6415 240.114V242.058C89.7735 242.382 89.9475 242.67 90.1635 242.922C90.3795 243.174 90.6255 243.378 90.9015 243.534C91.1775 243.678 91.4655 243.75 91.7655 243.75ZM97.6812 243.174C97.6812 242.55 97.8552 242.004 98.2032 241.536C98.5512 241.068 99.0312 240.702 99.6432 240.438C100.255 240.162 100.957 240.024 101.749 240.024C102.133 240.024 102.511 240.06 102.883 240.132C103.255 240.192 103.579 240.282 103.855 240.402V239.988C103.855 239.472 103.699 239.076 103.387 238.8C103.075 238.524 102.601 238.386 101.965 238.386C101.437 238.386 100.939 238.476 100.471 238.656C100.015 238.836 99.5292 239.094 99.0132 239.43L98.1492 237.594C98.7732 237.186 99.4212 236.88 100.093 236.676C100.777 236.472 101.497 236.37 102.253 236.37C103.669 236.37 104.767 236.712 105.547 237.396C106.339 238.068 106.735 239.046 106.735 240.33V242.796C106.735 243.084 106.777 243.288 106.861 243.408C106.957 243.516 107.119 243.582 107.347 243.606V246C107.107 246.048 106.879 246.084 106.663 246.108C106.459 246.132 106.279 246.144 106.123 246.144C105.583 246.144 105.169 246.036 104.881 245.82C104.605 245.604 104.431 245.31 104.359 244.938L104.305 244.524C103.885 245.064 103.381 245.478 102.793 245.766C102.217 246.042 101.611 246.18 100.975 246.18C100.351 246.18 99.7872 246.048 99.2832 245.784C98.7912 245.52 98.4012 245.16 98.1132 244.704C97.8252 244.248 97.6812 243.738 97.6812 243.174ZM103.405 243.534C103.537 243.426 103.645 243.306 103.729 243.174C103.813 243.042 103.855 242.916 103.855 242.796V241.95C103.615 241.854 103.345 241.782 103.045 241.734C102.757 241.674 102.487 241.644 102.235 241.644C101.707 241.644 101.269 241.764 100.921 242.004C100.573 242.232 100.399 242.538 100.399 242.922C100.399 243.138 100.459 243.336 100.579 243.516C100.699 243.696 100.861 243.84 101.065 243.948C101.281 244.056 101.533 244.11 101.821 244.11C102.109 244.11 102.397 244.056 102.685 243.948C102.973 243.84 103.213 243.702 103.405 243.534ZM114.816 239.016C114.12 239.016 113.49 239.13 112.926 239.358C112.362 239.574 111.954 239.898 111.702 240.33V246H108.822V236.55H111.468V238.458C111.792 237.822 112.212 237.324 112.728 236.964C113.244 236.604 113.784 236.418 114.348 236.406C114.48 236.406 114.576 236.406 114.636 236.406C114.708 236.406 114.768 236.412 114.816 236.424V239.016ZM116.029 246V236.55H118.909V246H116.029ZM116.029 235.47V232.86H118.909V235.47H116.029ZM124.499 246.18C123.695 246.18 122.909 246.048 122.141 245.784C121.373 245.52 120.725 245.13 120.197 244.614L121.187 242.796C121.763 243.216 122.321 243.534 122.861 243.75C123.413 243.966 123.929 244.074 124.409 244.074C124.781 244.074 125.069 244.014 125.273 243.894C125.477 243.774 125.579 243.588 125.579 243.336C125.579 243.156 125.519 243.018 125.399 242.922C125.279 242.814 125.093 242.718 124.841 242.634C124.601 242.55 124.301 242.46 123.941 242.364C123.221 242.124 122.621 241.89 122.141 241.662C121.661 241.434 121.301 241.158 121.061 240.834C120.821 240.498 120.701 240.066 120.701 239.538C120.701 238.902 120.857 238.35 121.169 237.882C121.493 237.402 121.949 237.03 122.537 236.766C123.125 236.502 123.827 236.37 124.643 236.37C125.291 236.37 125.921 236.472 126.533 236.676C127.157 236.88 127.739 237.222 128.279 237.702L127.163 239.502C126.623 239.13 126.143 238.86 125.723 238.692C125.303 238.524 124.895 238.44 124.499 238.44C124.295 238.44 124.109 238.464 123.941 238.512C123.773 238.56 123.635 238.644 123.527 238.764C123.431 238.872 123.383 239.016 123.383 239.196C123.383 239.376 123.431 239.52 123.527 239.628C123.635 239.736 123.797 239.832 124.013 239.916C124.241 239.988 124.523 240.078 124.859 240.186C125.639 240.414 126.287 240.648 126.803 240.888C127.319 241.116 127.703 241.404 127.955 241.752C128.219 242.088 128.351 242.538 128.351 243.102C128.351 244.062 128.003 244.818 127.307 245.37C126.623 245.91 125.687 246.18 124.499 246.18ZM134.328 246.18C133.524 246.18 132.804 246.048 132.168 245.784C131.544 245.52 131.016 245.16 130.584 244.704C130.152 244.248 129.822 243.726 129.594 243.138C129.378 242.55 129.27 241.932 129.27 241.284C129.27 240.624 129.378 240 129.594 239.412C129.822 238.824 130.152 238.302 130.584 237.846C131.016 237.39 131.544 237.03 132.168 236.766C132.804 236.502 133.524 236.37 134.328 236.37C135.132 236.37 135.846 236.502 136.47 236.766C137.094 237.03 137.622 237.39 138.054 237.846C138.486 238.302 138.816 238.824 139.044 239.412C139.272 240 139.386 240.624 139.386 241.284C139.386 241.932 139.272 242.55 139.044 243.138C138.816 243.726 138.486 244.248 138.054 244.704C137.622 245.16 137.094 245.52 136.47 245.784C135.846 246.048 135.132 246.18 134.328 246.18ZM132.222 241.284C132.222 241.776 132.312 242.208 132.492 242.58C132.684 242.952 132.936 243.24 133.248 243.444C133.56 243.648 133.92 243.75 134.328 243.75C134.724 243.75 135.078 243.648 135.39 243.444C135.714 243.228 135.966 242.934 136.146 242.562C136.326 242.19 136.416 241.764 136.416 241.284C136.416 240.792 136.326 240.36 136.146 239.988C135.966 239.616 135.714 239.328 135.39 239.124C135.078 238.92 134.724 238.818 134.328 238.818C133.92 238.818 133.56 238.92 133.248 239.124C132.936 239.328 132.684 239.616 132.492 239.988C132.312 240.36 132.222 240.792 132.222 241.284ZM149.922 246H147.042V240.69C147.042 240.066 146.922 239.616 146.682 239.34C146.454 239.052 146.148 238.908 145.764 238.908C145.5 238.908 145.23 238.98 144.954 239.124C144.678 239.268 144.426 239.466 144.198 239.718C143.982 239.97 143.814 240.258 143.694 240.582V246H140.814V236.55H143.406V238.134C143.646 237.762 143.946 237.444 144.306 237.18C144.666 236.916 145.08 236.718 145.548 236.586C146.016 236.442 146.526 236.37 147.078 236.37C147.69 236.37 148.182 236.484 148.554 236.712C148.938 236.928 149.226 237.216 149.418 237.576C149.622 237.936 149.754 238.326 149.814 238.746C149.886 239.154 149.922 239.556 149.922 239.952V246ZM156.138 239.754C156.138 240.582 156.012 241.416 155.76 242.256C155.508 243.096 155.172 243.924 154.752 244.74C154.332 245.544 153.87 246.318 153.366 247.062L151.278 246.036C151.902 244.908 152.418 243.834 152.826 242.814C153.246 241.782 153.456 240.78 153.456 239.808C153.456 239.172 153.372 238.518 153.204 237.846C153.036 237.174 152.826 236.532 152.574 235.92C152.322 235.296 152.07 234.744 151.818 234.264C151.578 233.784 151.374 233.412 151.206 233.148L153.402 232.248C154.17 233.556 154.818 234.828 155.346 236.064C155.874 237.3 156.138 238.53 156.138 239.754Z" fill="#5156CB"/>
</svg>
