<svg width="200" height="280" viewBox="0 0 200 280" fill="none" xmlns="http://www.w3.org/2000/svg">
<rect width="200" height="280" fill="white"/>
<rect x="35" y="96" width="30" height="86" rx="2" fill="#5156CB"/>
<rect x="85" y="66" width="30" height="116" rx="2" fill="#5156CB"/>
<rect x="135" y="28" width="30" height="154" rx="2" fill="#5156CB"/>
<path d="M74.3432 215.964C74.3072 215.904 74.1812 215.814 73.9652 215.694C73.7492 215.562 73.4792 215.424 73.1552 215.28C72.8312 215.136 72.4772 215.01 72.0932 214.902C71.7092 214.794 71.3252 214.74 70.9412 214.74C70.4372 214.74 70.0472 214.83 69.7712 215.01C69.4952 215.178 69.3572 215.442 69.3572 215.802C69.3572 216.09 69.4592 216.318 69.6632 216.486C69.8792 216.654 70.1852 216.804 70.5812 216.936C70.9772 217.056 71.4632 217.2 72.0392 217.368C72.8552 217.584 73.5632 217.848 74.1632 218.16C74.7632 218.46 75.2192 218.85 75.5312 219.33C75.8552 219.81 76.0172 220.446 76.0172 221.238C76.0172 221.958 75.8852 222.57 75.6212 223.074C75.3572 223.566 74.9972 223.968 74.5412 224.28C74.0972 224.58 73.5872 224.802 73.0112 224.946C72.4352 225.078 71.8412 225.144 71.2292 225.144C70.6052 225.144 69.9632 225.084 69.3032 224.964C68.6552 224.832 68.0312 224.652 67.4312 224.424C66.8312 224.184 66.2792 223.896 65.7752 223.56L67.0712 220.986C67.1192 221.046 67.2752 221.16 67.5392 221.328C67.8032 221.484 68.1272 221.652 68.5112 221.832C68.9072 222 69.3452 222.15 69.8252 222.282C70.3052 222.414 70.7912 222.48 71.2832 222.48C71.8112 222.48 72.2012 222.396 72.4532 222.228C72.7172 222.06 72.8492 221.826 72.8492 221.526C72.8492 221.202 72.7112 220.95 72.4352 220.77C72.1712 220.59 71.8052 220.428 71.3372 220.284C70.8812 220.14 70.3532 219.978 69.7532 219.798C68.9732 219.558 68.3252 219.288 67.8092 218.988C67.3052 218.688 66.9272 218.322 66.6752 217.89C66.4352 217.458 66.3152 216.918 66.3152 216.27C66.3152 215.37 66.5252 214.614 66.9452 214.002C67.3772 213.378 67.9532 212.91 68.6732 212.598C69.3932 212.274 70.1792 212.112 71.0312 212.112C71.6312 212.112 72.2072 212.184 72.7592 212.328C73.3232 212.472 73.8452 212.652 74.3252 212.868C74.8172 213.084 75.2552 213.3 75.6392 213.516L74.3432 215.964ZM82.0154 225.18C81.2114 225.18 80.4914 225.048 79.8554 224.784C79.2314 224.52 78.7034 224.16 78.2714 223.704C77.8394 223.248 77.5094 222.726 77.2814 222.138C77.0654 221.55 76.9574 220.932 76.9574 220.284C76.9574 219.624 77.0654 219 77.2814 218.412C77.5094 217.824 77.8394 217.302 78.2714 216.846C78.7034 216.39 79.2314 216.03 79.8554 215.766C80.4914 215.502 81.2114 215.37 82.0154 215.37C82.8194 215.37 83.5334 215.502 84.1574 215.766C84.7814 216.03 85.3094 216.39 85.7414 216.846C86.1734 217.302 86.5034 217.824 86.7314 218.412C86.9594 219 87.0734 219.624 87.0734 220.284C87.0734 220.932 86.9594 221.55 86.7314 222.138C86.5034 222.726 86.1734 223.248 85.7414 223.704C85.3094 224.16 84.7814 224.52 84.1574 224.784C83.5334 225.048 82.8194 225.18 82.0154 225.18ZM79.9094 220.284C79.9094 220.776 79.9994 221.208 80.1794 221.58C80.3714 221.952 80.6234 222.24 80.9354 222.444C81.2474 222.648 81.6074 222.75 82.0154 222.75C82.4114 222.75 82.7654 222.648 83.0774 222.444C83.4014 222.228 83.6534 221.934 83.8334 221.562C84.0134 221.19 84.1034 220.764 84.1034 220.284C84.1034 219.792 84.0134 219.36 83.8334 218.988C83.6534 218.616 83.4014 218.328 83.0774 218.124C82.7654 217.92 82.4114 217.818 82.0154 217.818C81.6074 217.818 81.2474 217.92 80.9354 218.124C80.6234 218.328 80.3714 218.616 80.1794 218.988C79.9994 219.36 79.9094 219.792 79.9094 220.284ZM94.4957 218.016C93.7997 218.016 93.1697 218.13 92.6057 218.358C92.0417 218.574 91.6337 218.898 91.3817 219.33V225H88.5017V215.55H91.1477V217.458C91.4717 216.822 91.8917 216.324 92.4077 215.964C92.9237 215.604 93.4637 215.418 94.0277 215.406C94.1597 215.406 94.2557 215.406 94.3157 215.406C94.3877 215.406 94.4477 215.412 94.4957 215.424V218.016ZM101.829 224.496C101.565 224.604 101.271 224.712 100.947 224.82C100.635 224.928 100.305 225.012 99.9568 225.072C99.6088 225.144 99.2668 225.18 98.9308 225.18C98.4508 225.18 98.0068 225.102 97.5988 224.946C97.2028 224.778 96.8848 224.508 96.6448 224.136C96.4168 223.764 96.3028 223.272 96.3028 222.66V217.728H95.0968V215.55H96.3028V212.544H99.1828V215.55H101.109V217.728H99.1828V221.67C99.1828 221.982 99.2608 222.21 99.4168 222.354C99.5728 222.486 99.7708 222.552 100.011 222.552C100.215 222.552 100.431 222.516 100.659 222.444C100.899 222.372 101.103 222.294 101.271 222.21L101.829 224.496ZM102.951 225V215.55H105.831V225H102.951ZM102.951 214.47V211.86H105.831V214.47H102.951ZM116.911 225H114.031V219.69C114.031 219.066 113.911 218.616 113.671 218.34C113.443 218.052 113.137 217.908 112.753 217.908C112.489 217.908 112.219 217.98 111.943 218.124C111.667 218.268 111.415 218.466 111.187 218.718C110.971 218.97 110.803 219.258 110.683 219.582V225H107.803V215.55H110.395V217.134C110.635 216.762 110.935 216.444 111.295 216.18C111.655 215.916 112.069 215.718 112.537 215.586C113.005 215.442 113.515 215.37 114.067 215.37C114.679 215.37 115.171 215.484 115.543 215.712C115.927 215.928 116.215 216.216 116.407 216.576C116.611 216.936 116.743 217.326 116.803 217.746C116.875 218.154 116.911 218.556 116.911 218.952V225ZM122.496 225.036C121.872 225.036 121.302 224.916 120.786 224.676C120.27 224.424 119.826 224.082 119.454 223.65C119.094 223.206 118.812 222.696 118.608 222.12C118.404 221.544 118.302 220.926 118.302 220.266C118.302 219.57 118.41 218.928 118.626 218.34C118.842 217.752 119.142 217.236 119.526 216.792C119.922 216.336 120.384 215.988 120.912 215.748C121.452 215.496 122.046 215.37 122.694 215.37C123.402 215.37 124.026 215.526 124.566 215.838C125.106 216.138 125.538 216.558 125.862 217.098V215.55H128.364V224.352C128.364 225.312 128.13 226.14 127.662 226.836C127.206 227.532 126.564 228.066 125.736 228.438C124.92 228.822 123.972 229.014 122.892 229.014C121.884 229.014 121.014 228.846 120.282 228.51C119.562 228.186 118.932 227.724 118.392 227.124L119.94 225.558C120.288 225.954 120.72 226.266 121.236 226.494C121.752 226.734 122.304 226.854 122.892 226.854C123.36 226.854 123.792 226.77 124.188 226.602C124.584 226.434 124.896 226.164 125.124 225.792C125.364 225.42 125.484 224.94 125.484 224.352V223.434C125.196 223.95 124.776 224.346 124.224 224.622C123.684 224.898 123.108 225.036 122.496 225.036ZM123.486 222.75C123.714 222.75 123.924 222.72 124.116 222.66C124.32 222.588 124.506 222.498 124.674 222.39C124.842 222.27 124.998 222.132 125.142 221.976C125.286 221.808 125.4 221.628 125.484 221.436V219.456C125.364 219.12 125.19 218.832 124.962 218.592C124.734 218.34 124.482 218.148 124.206 218.016C123.93 217.884 123.642 217.818 123.342 217.818C123.042 217.818 122.76 217.884 122.496 218.016C122.232 218.148 122.004 218.34 121.812 218.592C121.632 218.832 121.488 219.102 121.38 219.402C121.284 219.702 121.236 220.014 121.236 220.338C121.236 220.686 121.29 221.004 121.398 221.292C121.518 221.58 121.68 221.838 121.884 222.066C122.088 222.282 122.328 222.45 122.604 222.57C122.88 222.69 123.174 222.75 123.486 222.75Z" fill="#5156CB"/>
</svg>
