<svg width="200" height="280" viewBox="0 0 200 280" fill="none" xmlns="http://www.w3.org/2000/svg">
<rect width="200" height="280" fill="white"/>
<rect x="35" y="96" width="30" height="86" rx="2" fill="#5156CB"/>
<rect x="85" y="96" width="30" height="86" rx="2" fill="#004A62"/>
<rect x="35" y="66" width="30" height="116" rx="2" fill="#5156CB"/>
<rect x="135" y="28" width="30" height="154" rx="2" fill="#5156CB"/>
<path d="M70.2445 214.964C70.2085 214.904 70.0825 214.814 69.8665 214.694C69.6505 214.562 69.3805 214.424 69.0565 214.28C68.7325 214.136 68.3785 214.01 67.9945 213.902C67.6105 213.794 67.2265 213.74 66.8425 213.74C66.3385 213.74 65.9485 213.83 65.6725 214.01C65.3965 214.178 65.2585 214.442 65.2585 214.802C65.2585 215.09 65.3605 215.318 65.5645 215.486C65.7805 215.654 66.0865 215.804 66.4825 215.936C66.8785 216.056 67.3645 216.2 67.9405 216.368C68.7565 216.584 69.4645 216.848 70.0645 217.16C70.6645 217.46 71.1205 217.85 71.4325 218.33C71.7565 218.81 71.9185 219.446 71.9185 220.238C71.9185 220.958 71.7865 221.57 71.5225 222.074C71.2585 222.566 70.8985 222.968 70.4425 223.28C69.9985 223.58 69.4885 223.802 68.9125 223.946C68.3365 224.078 67.7425 224.144 67.1305 224.144C66.5065 224.144 65.8645 224.084 65.2045 223.964C64.5565 223.832 63.9325 223.652 63.3325 223.424C62.7325 223.184 62.1805 222.896 61.6765 222.56L62.9725 219.986C63.0205 220.046 63.1765 220.16 63.4405 220.328C63.7045 220.484 64.0285 220.652 64.4125 220.832C64.8085 221 65.2465 221.15 65.7265 221.282C66.2065 221.414 66.6925 221.48 67.1845 221.48C67.7125 221.48 68.1025 221.396 68.3545 221.228C68.6185 221.06 68.7505 220.826 68.7505 220.526C68.7505 220.202 68.6125 219.95 68.3365 219.77C68.0725 219.59 67.7065 219.428 67.2385 219.284C66.7825 219.14 66.2545 218.978 65.6545 218.798C64.8745 218.558 64.2265 218.288 63.7105 217.988C63.2065 217.688 62.8285 217.322 62.5765 216.89C62.3365 216.458 62.2165 215.918 62.2165 215.27C62.2165 214.37 62.4265 213.614 62.8465 213.002C63.2785 212.378 63.8545 211.91 64.5745 211.598C65.2945 211.274 66.0805 211.112 66.9325 211.112C67.5325 211.112 68.1085 211.184 68.6605 211.328C69.2245 211.472 69.7465 211.652 70.2265 211.868C70.7185 212.084 71.1565 212.3 71.5405 212.516L70.2445 214.964ZM77.9348 224.18C77.1308 224.18 76.4168 224.054 75.7928 223.802C75.1688 223.538 74.6348 223.184 74.1908 222.74C73.7588 222.296 73.4288 221.786 73.2008 221.21C72.9728 220.622 72.8588 220.01 72.8588 219.374C72.8588 218.462 73.0568 217.634 73.4528 216.89C73.8608 216.134 74.4428 215.528 75.1988 215.072C75.9548 214.604 76.8668 214.37 77.9348 214.37C79.0028 214.37 79.9088 214.598 80.6528 215.054C81.4088 215.51 81.9848 216.11 82.3808 216.854C82.7768 217.586 82.9748 218.384 82.9748 219.248C82.9748 219.416 82.9628 219.584 82.9388 219.752C82.9268 219.908 82.9148 220.046 82.9028 220.166H75.9188C75.9548 220.586 76.0688 220.94 76.2608 221.228C76.4648 221.516 76.7228 221.738 77.0348 221.894C77.3468 222.038 77.6768 222.11 78.0248 222.11C78.4568 222.11 78.8588 222.008 79.2308 221.804C79.6148 221.6 79.8788 221.324 80.0228 220.976L82.4708 221.66C82.2308 222.152 81.8888 222.59 81.4448 222.974C81.0128 223.346 80.4968 223.64 79.8968 223.856C79.3088 224.072 78.6548 224.18 77.9348 224.18ZM75.8468 218.402H79.9508C79.9028 218.006 79.7888 217.664 79.6088 217.376C79.4288 217.076 79.1888 216.848 78.8888 216.692C78.5888 216.524 78.2588 216.44 77.8988 216.44C77.5268 216.44 77.1908 216.524 76.8908 216.692C76.6028 216.848 76.3688 217.076 76.1888 217.376C76.0088 217.664 75.8948 218.006 75.8468 218.402ZM83.686 221.174C83.686 220.55 83.86 220.004 84.208 219.536C84.556 219.068 85.036 218.702 85.648 218.438C86.26 218.162 86.962 218.024 87.754 218.024C88.138 218.024 88.516 218.06 88.888 218.132C89.26 218.192 89.584 218.282 89.86 218.402V217.988C89.86 217.472 89.704 217.076 89.392 216.8C89.08 216.524 88.606 216.386 87.97 216.386C87.442 216.386 86.944 216.476 86.476 216.656C86.02 216.836 85.534 217.094 85.018 217.43L84.154 215.594C84.778 215.186 85.426 214.88 86.098 214.676C86.782 214.472 87.502 214.37 88.258 214.37C89.674 214.37 90.772 214.712 91.552 215.396C92.344 216.068 92.74 217.046 92.74 218.33V220.796C92.74 221.084 92.782 221.288 92.866 221.408C92.962 221.516 93.124 221.582 93.352 221.606V224C93.112 224.048 92.884 224.084 92.668 224.108C92.464 224.132 92.284 224.144 92.128 224.144C91.588 224.144 91.174 224.036 90.886 223.82C90.61 223.604 90.436 223.31 90.364 222.938L90.31 222.524C89.89 223.064 89.386 223.478 88.798 223.766C88.222 224.042 87.616 224.18 86.98 224.18C86.356 224.18 85.792 224.048 85.288 223.784C84.796 223.52 84.406 223.16 84.118 222.704C83.83 222.248 83.686 221.738 83.686 221.174ZM89.41 221.534C89.542 221.426 89.65 221.306 89.734 221.174C89.818 221.042 89.86 220.916 89.86 220.796V219.95C89.62 219.854 89.35 219.782 89.05 219.734C88.762 219.674 88.492 219.644 88.24 219.644C87.712 219.644 87.274 219.764 86.926 220.004C86.578 220.232 86.404 220.538 86.404 220.922C86.404 221.138 86.464 221.336 86.584 221.516C86.704 221.696 86.866 221.84 87.07 221.948C87.286 222.056 87.538 222.11 87.826 222.11C88.114 222.11 88.402 222.056 88.69 221.948C88.978 221.84 89.218 221.702 89.41 221.534ZM100.821 217.016C100.125 217.016 99.4949 217.13 98.9309 217.358C98.3669 217.574 97.9589 217.898 97.7069 218.33V224H94.8269V214.55H97.4729V216.458C97.7969 215.822 98.2169 215.324 98.7329 214.964C99.2489 214.604 99.7889 214.418 100.353 214.406C100.485 214.406 100.581 214.406 100.641 214.406C100.713 214.406 100.773 214.412 100.821 214.424V217.016ZM106.482 224.18C105.678 224.18 104.964 224.048 104.34 223.784C103.716 223.52 103.182 223.16 102.738 222.704C102.306 222.248 101.976 221.726 101.748 221.138C101.52 220.55 101.406 219.926 101.406 219.266C101.406 218.402 101.604 217.598 102 216.854C102.408 216.11 102.99 215.51 103.746 215.054C104.502 214.598 105.414 214.37 106.482 214.37C107.562 214.37 108.474 214.604 109.218 215.072C109.974 215.528 110.538 216.128 110.91 216.872L108.102 217.718C107.922 217.43 107.688 217.208 107.4 217.052C107.124 216.896 106.812 216.818 106.464 216.818C106.068 216.818 105.708 216.92 105.384 217.124C105.072 217.328 104.82 217.61 104.628 217.97C104.448 218.33 104.358 218.762 104.358 219.266C104.358 219.758 104.454 220.19 104.646 220.562C104.838 220.934 105.09 221.228 105.402 221.444C105.714 221.648 106.068 221.75 106.464 221.75C106.704 221.75 106.926 221.714 107.13 221.642C107.346 221.558 107.538 221.444 107.706 221.3C107.886 221.156 108.024 220.994 108.12 220.814L110.928 221.678C110.7 222.158 110.37 222.59 109.938 222.974C109.518 223.346 109.02 223.64 108.444 223.856C107.868 224.072 107.214 224.18 106.482 224.18ZM121.337 224H118.457V218.69C118.457 218.078 118.331 217.628 118.079 217.34C117.839 217.052 117.515 216.908 117.107 216.908C116.891 216.908 116.645 216.98 116.369 217.124C116.105 217.256 115.859 217.448 115.631 217.7C115.403 217.952 115.229 218.246 115.109 218.582V224H112.229V210.86H115.109V216.134C115.457 215.57 115.913 215.138 116.477 214.838C117.053 214.526 117.683 214.37 118.367 214.37C119.015 214.37 119.531 214.478 119.915 214.694C120.311 214.91 120.611 215.198 120.815 215.558C121.019 215.906 121.157 216.29 121.229 216.71C121.301 217.13 121.337 217.544 121.337 217.952V224ZM123.251 224V214.55H126.131V224H123.251ZM123.251 213.47V210.86H126.131V213.47H123.251ZM137.21 224H134.33V218.69C134.33 218.066 134.21 217.616 133.97 217.34C133.742 217.052 133.436 216.908 133.052 216.908C132.788 216.908 132.518 216.98 132.242 217.124C131.966 217.268 131.714 217.466 131.486 217.718C131.27 217.97 131.102 218.258 130.982 218.582V224H128.102V214.55H130.694V216.134C130.934 215.762 131.234 215.444 131.594 215.18C131.954 214.916 132.368 214.718 132.836 214.586C133.304 214.442 133.814 214.37 134.366 214.37C134.978 214.37 135.47 214.484 135.842 214.712C136.226 214.928 136.514 215.216 136.706 215.576C136.91 215.936 137.042 216.326 137.102 216.746C137.174 217.154 137.21 217.556 137.21 217.952V224ZM142.796 224.036C142.172 224.036 141.602 223.916 141.086 223.676C140.57 223.424 140.126 223.082 139.754 222.65C139.394 222.206 139.112 221.696 138.908 221.12C138.704 220.544 138.602 219.926 138.602 219.266C138.602 218.57 138.71 217.928 138.926 217.34C139.142 216.752 139.442 216.236 139.826 215.792C140.222 215.336 140.684 214.988 141.212 214.748C141.752 214.496 142.346 214.37 142.994 214.37C143.702 214.37 144.326 214.526 144.866 214.838C145.406 215.138 145.838 215.558 146.162 216.098V214.55H148.664V223.352C148.664 224.312 148.43 225.14 147.962 225.836C147.506 226.532 146.864 227.066 146.036 227.438C145.22 227.822 144.272 228.014 143.192 228.014C142.184 228.014 141.314 227.846 140.582 227.51C139.862 227.186 139.232 226.724 138.692 226.124L140.24 224.558C140.588 224.954 141.02 225.266 141.536 225.494C142.052 225.734 142.604 225.854 143.192 225.854C143.66 225.854 144.092 225.77 144.488 225.602C144.884 225.434 145.196 225.164 145.424 224.792C145.664 224.42 145.784 223.94 145.784 223.352V222.434C145.496 222.95 145.076 223.346 144.524 223.622C143.984 223.898 143.408 224.036 142.796 224.036ZM143.786 221.75C144.014 221.75 144.224 221.72 144.416 221.66C144.62 221.588 144.806 221.498 144.974 221.39C145.142 221.27 145.298 221.132 145.442 220.976C145.586 220.808 145.7 220.628 145.784 220.436V218.456C145.664 218.12 145.49 217.832 145.262 217.592C145.034 217.34 144.782 217.148 144.506 217.016C144.23 216.884 143.942 216.818 143.642 216.818C143.342 216.818 143.06 216.884 142.796 217.016C142.532 217.148 142.304 217.34 142.112 217.592C141.932 217.832 141.788 218.102 141.68 218.402C141.584 218.702 141.536 219.014 141.536 219.338C141.536 219.686 141.59 220.004 141.698 220.292C141.818 220.58 141.98 220.838 142.184 221.066C142.388 221.282 142.628 221.45 142.904 221.57C143.18 221.69 143.474 221.75 143.786 221.75Z" fill="#5156CB"/>
</svg>
